# xmcd
#
# Track frame offsets: 
#        150
#        12437
#        25876
#        39291
#        48395
#        62860
#        72574
#        83714
#        94026
#        106554
#        117905
#        128154
#        146400
#        159334
#        169669
#        180002
#        191429
#        204224
#        213261
#        222729
#        230979
#        242894
#        255860
#        269410
#
# Disc length: 3756 seconds
#
# Revision: 1
# Processed by: cddbd v1.5.2PL0 Copyright (c) Steve Scherf et al.
# Submitted via: ExactAudioCopy v0.99pb5
#
DISCID=480eaa18
DTITLE=Jerry Lee Lewis - Country Songs For City Folks_Memphis Beat (Re
DTITLE=master)
DYEAR=2005
DGENRE=Country
TTITLE0=Green Green Grass Of Home
TTITLE1=Wolverton Mountain
TTITLE2=Funny How Time Slips Away
TTITLE3=North To Alaska
TTITLE4=The Wild Side Of Life
TTITLE5=Walk Right In
TTITLE6=City Lights
TTITLE7=Ring Of Fire
TTITLE8=Detroit City
TTITLE9=Crazy Arms
TTITLE10=King Of The Road
TTITLE11=Seasons Of My Heart
TTITLE12=Memphis Beat
TTITLE13=Mathilda
TTITLE14=Drinkin Wine Spo Dee O Dee
TTITLE15=Hallelujah I Love Her So
TTITLE16=She Thinks I Still Care
TTITLE17=Just Because
TTITLE18=Sticks And Stones
TTITLE19=Whenever You're Ready
TTITLE20=Lincoln Limousine
TTITLE21=Big Boss Man
TTITLE22=Too Young
TTITLE23=The Urge
EXTD=
EXTT0=
EXTT1=
EXTT2=
EXTT3=
EXTT4=
EXTT5=
EXTT6=
EXTT7=
EXTT8=
EXTT9=
EXTT10=
EXTT11=
EXTT12=
EXTT13=
EXTT14=
EXTT15=
EXTT16=
EXTT17=
EXTT18=
EXTT19=
EXTT20=
EXTT21=
EXTT22=
EXTT23=
PLAYORDER=
